<?xml version="1.0" encoding="UTF-8" standalone="no"?>
<svg width="37px" height="37px" viewBox="0 0 37 37" version="1.1" xmlns="http://www.w3.org/2000/svg" xmlns:xlink="http://www.w3.org/1999/xlink">
    <!-- Generator: Sketch 3.6.1 (26313) - http://www.bohemiancoding.com/sketch -->
    <title>linkedin</title>
    <desc>Created with Sketch.</desc>
    <defs></defs>
    <g id="Welcome" stroke="none" stroke-width="1" fill="none" fill-rule="evenodd">
        <g id="Desktop-HD-Copy-7" transform="translate(-285.000000, -5213.000000)" fill="#00838F">
            <path d="M303.364132,5213 C293.221781,5213 285,5221.22479 285,5231.36563 C285,5241.50648 293.221781,5249.72676 303.364132,5249.72676 C313.503477,5249.72676 321.726761,5241.50648 321.726761,5231.36563 C321.726761,5221.22479 313.503477,5213 303.364132,5213 L303.364132,5213 Z M298.350814,5240.14195 L294.413496,5240.14195 L294.413496,5228.30144 L298.350814,5228.30144 L298.350814,5240.14195 Z M296.382155,5226.68143 L296.356608,5226.68143 C295.035652,5226.68143 294.182066,5225.77374 294.182066,5224.63462 C294.182066,5223.47597 295.064205,5222.58932 296.407702,5222.58932 C297.755708,5222.58932 298.583747,5223.47597 298.609294,5224.63462 C298.609294,5225.77374 297.755708,5226.68143 296.382155,5226.68143 L296.382155,5226.68143 Z M312.544695,5240.14195 L308.607377,5240.14195 L308.607377,5233.80767 C308.607377,5232.21622 308.039321,5231.12819 306.614673,5231.12819 C305.525148,5231.12819 304.878947,5231.86456 304.591914,5232.56787 C304.489724,5232.82334 304.462674,5233.17049 304.462674,5233.52815 L304.462674,5240.14195 L300.528361,5240.14195 C300.528361,5240.14195 300.577953,5229.4105 300.528361,5228.30144 L304.462674,5228.30144 L304.462674,5229.97705 C304.988651,5229.17005 305.923388,5228.02192 308.012271,5228.02192 C310.600081,5228.02192 312.544695,5229.71256 312.544695,5233.35233 L312.544695,5240.14195 Z" id="linkedin"></path>
        </g>
    </g>
</svg>