<?xml version="1.0" encoding="UTF-8" standalone="no"?>
<svg width="54px" height="54px" viewBox="0 0 54 54" version="1.1" xmlns="http://www.w3.org/2000/svg" xmlns:xlink="http://www.w3.org/1999/xlink">
    <!-- Generator: Sketch 3.6.1 (26313) - http://www.bohemiancoding.com/sketch -->
    <title>logo_white</title>
    <desc>Created with Sketch.</desc>
    <defs>
        <path id="path-1" d="M0,0.141782251 L53.7497877,0.141782251 L53.7497877,53.8499896 L0,53.8499896 L0,0.141782251 Z"></path>
    </defs>
    <g id="Welcome" stroke="none" stroke-width="1" fill="none" fill-rule="evenodd">
        <g id="Desktop-HD-Copy-7" transform="translate(-175.000000, -5827.000000)">
            <g id="logo_white" transform="translate(175.000000, 5827.000000)">
                <path d="M23.8986935,23.4355836 C23.8986935,22.8834508 23.8353005,22.3456326 23.7194208,21.827582 C23.197962,20.2386665 21.615863,19.4343249 18.9540375,19.4343249 L14.9077902,19.4343249 L14.9077902,26.8887994 L18.9540375,26.8887994 C22.063704,26.8887994 23.7003347,25.7947585 23.895967,23.6046317 C23.895967,23.5494184 23.8986935,23.4928418 23.8986935,23.4355836" id="Fill-1" fill="#FFFFFF"></path>
                <path d="M36.5803661,29.5207688 C35.0378024,29.5207688 33.7815299,30.7784046 33.7815299,32.3236948 C33.7815299,33.87103 35.0378024,35.1259392 36.5803661,35.1259392 C38.0084133,35.1259392 39.1869782,34.0530293 39.3573896,32.6733789 C39.3669326,32.5568176 39.3771573,32.4395745 39.3771573,32.3236948 C39.3771573,32.2050885 39.3669326,32.092617 39.3573896,31.9760556 C39.1869782,30.5964053 38.0084133,29.5207688 36.5803661,29.5207688" id="Fill-3" fill="#FFFFFF"></path>
                <g id="Group-7">
                    <mask id="mask-2" fill="white">
                        <use xlink:href="#path-1"></use>
                    </mask>
                    <g id="Clip-6"></g>
                    <path d="M36.5803661,37.9641063 C36.0970795,37.9641063 35.6246992,37.8945785 35.1748132,37.7807437 C35.1720866,37.7793804 35.1645885,37.7766538 35.1584537,37.7766538 C32.7358858,37.1447685 30.9424767,34.9491885 30.9424767,32.3234903 C30.9424767,29.7012003 32.7358858,27.5049387 35.1584537,26.873735 C35.1645885,26.8716901 35.1720866,26.8696452 35.1748132,26.8696452 C35.6246992,26.7530838 36.0970795,26.6856009 36.5803661,26.6856009 C39.696849,26.6856009 42.2189371,29.2090523 42.2189371,32.3234903 C42.2189371,35.4399733 39.696849,37.9641063 36.5803661,37.9641063 L36.5803661,37.9641063 Z M32.6983953,18.720574 L35.2320714,18.720574 L35.2320714,16.1862162 L37.9252525,16.1862162 L37.9252525,18.720574 L40.4630185,18.720574 L40.4630185,21.4130734 L37.9252525,21.4130734 L37.9252525,23.9460679 L35.2320714,23.9460679 L35.2320714,21.4130734 L32.6983953,21.4130734 L32.6983953,18.720574 Z M23.7954242,37.4774115 L19.3217852,30.203573 L19.3176954,30.203573 L14.9074494,30.203573 L14.9074494,30.5259913 L14.9074494,37.4774115 L11.2885938,37.4774115 L11.2885938,28.4162987 L11.2885938,18.4581405 L11.2885938,16.1480441 L16.6088364,16.1480441 L19.4117624,16.1480441 C24.4327627,16.1480441 27.5362944,18.7355702 27.5362944,23.117187 C27.5362944,26.2493478 25.954877,28.5314967 23.1860332,29.5955453 L28.0829741,37.4774115 L23.7954242,37.4774115 Z M50.7892652,14.7731652 C45.9809383,5.3739563 36.0582257,-0.356636893 25.5070359,0.175046548 C25.1334942,0.19276933 24.766769,0.226169956 24.3986805,0.262297164 C24.3325609,0.265705392 24.2678045,0.274566782 24.2057748,0.280701591 C20.8725286,0.611299628 17.659252,1.54924375 14.640926,3.09044408 C8.25186334,6.35893396 3.52192565,11.9170709 1.31612101,18.7451132 C-0.891728561,25.570429 -0.306876776,32.8483573 2.95956816,39.2360567 C7.58453245,48.2760385 16.944206,53.9016583 27.0421015,53.8498532 C27.1300337,53.8471267 27.2145578,53.8498532 27.3018084,53.8498532 C27.6153653,53.8450817 27.9275589,53.8532615 28.2404341,53.836902 C32.0406075,53.6474045 35.694227,52.6631085 39.1044991,50.9160513 C45.49697,47.6536962 50.2262261,42.0914694 52.4340757,35.265472 C54.6405619,28.4381113 54.0584367,21.1635912 50.7892652,14.7731652 L50.7892652,14.7731652 Z" id="Fill-5" fill="#FFFFFF" mask="url(#mask-2)"></path>
                </g>
            </g>
        </g>
    </g>
</svg>