<?xml version="1.0" encoding="UTF-8" standalone="no"?>
<svg width="37px" height="38px" viewBox="0 0 37 38" version="1.1" xmlns="http://www.w3.org/2000/svg" xmlns:xlink="http://www.w3.org/1999/xlink">
    <!-- Generator: Sketch 3.6.1 (26313) - http://www.bohemiancoding.com/sketch -->
    <title>twitter</title>
    <desc>Created with Sketch.</desc>
    <defs></defs>
    <g id="Welcome" stroke="none" stroke-width="1" fill="none" fill-rule="evenodd">
        <g id="Desktop-HD-Copy-7" transform="translate(-682.000000, -5211.000000)" fill="#00ACC1">
            <g id="Group-2-Copy" transform="translate(681.000000, 5211.000000)">
                <g id="Group-10" transform="translate(0.115385, 0.500000)">
                    <path d="M19.2354512,0.464622164 C9.09610613,0.464622164 0.872822238,8.68940885 0.872822238,18.8302568 C0.872822238,28.9711047 9.09610613,37.191383 19.2354512,37.191383 C29.3778019,37.191383 37.6010858,28.9711047 37.6010858,18.8302568 C37.6010858,8.68940885 29.3778019,0.464622164 19.2354512,0.464622164 M26.537523,15.0867991 C26.5465397,15.2491008 26.5495453,15.4098996 26.5495453,15.5722013 C26.5495453,20.5494521 22.7610039,26.2916245 15.8286193,26.2916245 C13.702167,26.2916245 11.7229885,25.6679654 10.0548881,24.6009823 C10.3509384,24.6325409 10.651497,24.6505745 10.9535584,24.6505745 C12.7208431,24.6505745 14.3423569,24.05096 15.6332562,23.0380775 C13.9846921,23.0065188 12.5931057,21.9169938 12.1152175,20.4232174 C12.343642,20.4652957 12.5780778,20.4908431 12.8215302,20.4908431 C13.1656699,20.4908431 13.5007927,20.441251 13.8148765,20.3585973 C12.0926756,20.0144577 10.7927596,18.4891227 10.7927596,16.6632291 L10.7927596,16.6166425 C11.3022064,16.9021732 11.8807818,17.070486 12.4999325,17.0870167 C11.4900556,16.4137654 10.8228154,15.2581175 10.8228154,13.9521903 C10.8228154,13.2624083 11.0091618,12.6132017 11.3322623,12.0601738 C13.1912174,14.3384081 15.968379,15.8381957 19.0986971,15.9944862 C19.0355798,15.7179722 19.0010155,15.4309387 19.0010155,15.1378941 C19.0010155,13.0565256 20.6886522,11.3733973 22.7700206,11.3733973 C23.8520317,11.3733973 24.8333556,11.8272409 25.520132,12.5575983 C26.3767241,12.3907883 27.183724,12.0767045 27.9110759,11.6439001 C27.6300535,12.5245369 27.0334447,13.2624083 26.2565006,13.7282741 C27.016914,13.6381066 27.742763,13.4352295 28.4175171,13.1361737 C27.9125787,13.8935814 27.2753944,14.5563131 26.537523,15.0867991" id="twitter"></path>
                </g>
            </g>
        </g>
    </g>
</svg>